<svg xmlns="http://www.w3.org/2000/svg" viewBox="0 0 800 450" width="800" height="450" role="img" aria-label="Agent skills: a list of short descriptions with one of them expanded into full instructions.">
<defs>
  <radialGradient id="glow" cx="50%" cy="14%" r="80%">
    <stop offset="0%" stop-color="#64FFDA" stop-opacity="0.12"/>
    <stop offset="100%" stop-color="#64FFDA" stop-opacity="0"/>
  </radialGradient>
  <marker id="a" viewBox="0 0 10 10" refX="9" refY="5" markerWidth="6" markerHeight="6" orient="auto-start-reverse"><path d="M0 0 L10 5 L0 10 z" fill="#64FFDA"/></marker>
</defs>
<rect width="800" height="450" fill="#0F1626"/>
<rect width="800" height="450" fill="url(#glow)"/>
<text x="60" y="90" font-family="ui-monospace, SFMono-Regular, Menlo, Consolas, monospace" font-size="20" fill="#8B98A9">always loaded — one line each</text>
<g fill="#8B98A9" fill-opacity="0.2" stroke="rgba(230,237,243,0.18)" stroke-width="1.6">
<rect x="60" y="104" width="280" height="22" rx="3"/><rect x="60" y="132" width="280" height="22" rx="3"/><rect x="60" y="188" width="280" height="22" rx="3"/><rect x="60" y="216" width="280" height="22" rx="3"/><rect x="60" y="244" width="280" height="22" rx="3"/><rect x="60" y="272" width="280" height="22" rx="3"/>
</g>
<rect x="60" y="160" width="280" height="22" rx="3" fill="#64FFDA" fill-opacity="0.4" stroke="#64FFDA" stroke-width="2"/>
<path d="M352 171 H418" stroke="#64FFDA" stroke-opacity="0.75" stroke-width="2.5" marker-end="url(#a)"/>
<text x="356" y="158" font-family="ui-monospace, SFMono-Regular, Menlo, Consolas, monospace" font-size="19" fill="#64FFDA">matched</text>
<rect x="430" y="104" width="310" height="190" rx="10" fill="#64FFDA" fill-opacity="0.16" stroke="#64FFDA" stroke-opacity="0.7" stroke-width="2.5"/>
<g fill="#64FFDA" fill-opacity="0.4">
<rect x="454" y="132" width="200" height="12" rx="3"/><rect x="454" y="154" width="250" height="12" rx="3"/><rect x="454" y="176" width="220" height="12" rx="3"/><rect x="454" y="198" width="260" height="12" rx="3"/><rect x="454" y="220" width="180" height="12" rx="3"/><rect x="454" y="242" width="240" height="12" rx="3"/>
</g>
<text x="454" y="122" font-family="ui-monospace, SFMono-Regular, Menlo, Consolas, monospace" font-size="19" fill="#64FFDA">the full procedure</text>
<text x="60" y="344" font-family="ui-monospace, SFMono-Regular, Menlo, Consolas, monospace" font-size="21" fill="#8B98A9">the description is the trigger</text>
<text x="52" y="410" font-family="ui-monospace, SFMono-Regular, Menlo, Consolas, monospace" font-size="25" font-weight="600" letter-spacing="2" fill="#64FFDA" fill-opacity="0.9">agent skills</text>
</svg>
