<svg xmlns="http://www.w3.org/2000/svg" viewBox="0 0 800 450" width="800" height="450" role="img" aria-label="GGUF: a single file containing a header, metadata, tokenizer and quantized tensor blocks.">
<defs>
  <radialGradient id="glow" cx="50%" cy="14%" r="80%">
    <stop offset="0%" stop-color="#141413" stop-opacity="0.12"/>
    <stop offset="100%" stop-color="#141413" stop-opacity="0"/>
  </radialGradient>
</defs>
<rect width="800" height="450" fill="#F0EEE6"/>
<rect width="800" height="450" fill="url(#glow)"/>
<rect x="150" y="70" width="500" height="46" rx="8" fill="#141413" fill-opacity="0.3" stroke="#141413" stroke-width="2.5"/>
<text x="400" y="101" font-family="ui-monospace, SFMono-Regular, Menlo, Consolas, monospace" font-size="22" fill="#141413" text-anchor="middle" font-weight="600" letter-spacing="3">GGUF</text>
<rect x="150" y="124" width="500" height="46" rx="8" fill="#FFFFFF" stroke="rgba(20,20,19,0.2)" stroke-width="2"/>
<text x="400" y="155" font-family="ui-monospace, SFMono-Regular, Menlo, Consolas, monospace" font-size="21" fill="#5E5D59" text-anchor="middle">metadata</text>
<rect x="150" y="178" width="500" height="46" rx="8" fill="#FFFFFF" stroke="rgba(20,20,19,0.2)" stroke-width="2"/>
<text x="400" y="209" font-family="ui-monospace, SFMono-Regular, Menlo, Consolas, monospace" font-size="21" fill="#5E5D59" text-anchor="middle">tokenizer</text>
<rect x="150" y="232" width="500" height="106" rx="8" fill="#141413" fill-opacity="0.14" stroke="#141413" stroke-opacity="0.6" stroke-width="2"/>
<g fill="#141413" fill-opacity="0.5">
<rect x="176" y="256" width="18" height="26" rx="3"/><rect x="200" y="256" width="18" height="26" rx="3"/><rect x="224" y="256" width="18" height="26" rx="3"/><rect x="248" y="256" width="18" height="26" rx="3"/><rect x="272" y="256" width="18" height="26" rx="3"/><rect x="296" y="256" width="18" height="26" rx="3"/><rect x="320" y="256" width="18" height="26" rx="3"/><rect x="344" y="256" width="18" height="26" rx="3"/><rect x="368" y="256" width="18" height="26" rx="3"/><rect x="392" y="256" width="18" height="26" rx="3"/><rect x="416" y="256" width="18" height="26" rx="3"/><rect x="440" y="256" width="18" height="26" rx="3"/><rect x="464" y="256" width="18" height="26" rx="3"/><rect x="488" y="256" width="18" height="26" rx="3"/><rect x="512" y="256" width="18" height="26" rx="3"/><rect x="536" y="256" width="18" height="26" rx="3"/>
</g>
<text x="400" y="316" font-family="ui-monospace, SFMono-Regular, Menlo, Consolas, monospace" font-size="21" fill="#141413" text-anchor="middle">quantized tensor blocks</text>
<text x="60" y="380" font-family="ui-monospace, SFMono-Regular, Menlo, Consolas, monospace" font-size="21" fill="#5E5D59">one file, mapped rather than parsed</text>
<text x="52" y="422" font-family="ui-monospace, SFMono-Regular, Menlo, Consolas, monospace" font-size="25" font-weight="600" letter-spacing="2" fill="#141413" fill-opacity="0.9">gguf</text>
</svg>
