<svg xmlns="http://www.w3.org/2000/svg" viewBox="0 0 800 450" width="800" height="450" role="img" aria-label="SGLang: a prefix tree where a shared root block branches into documents and then into individual questions.">
<defs>
  <radialGradient id="glow" cx="50%" cy="14%" r="80%">
    <stop offset="0%" stop-color="#141413" stop-opacity="0.12"/>
    <stop offset="100%" stop-color="#141413" stop-opacity="0"/>
  </radialGradient>
</defs>
<rect width="800" height="450" fill="#F0EEE6"/>
<rect width="800" height="450" fill="url(#glow)"/>
<rect x="260" y="80" width="280" height="50" rx="8" fill="#141413" fill-opacity="0.32" stroke="#141413" stroke-width="2.5"/>
<text x="400" y="112" font-family="ui-monospace, SFMono-Regular, Menlo, Consolas, monospace" font-size="21" fill="#141413" text-anchor="middle" font-weight="600">shared prefix</text>
<g stroke="#141413" stroke-opacity="0.5" stroke-width="2.5" fill="none">
<path d="M330 134 V152 H210 V172"/><path d="M470 134 V152 H590 V172"/>
</g>
<rect x="100" y="174" width="220" height="46" rx="8" fill="#141413" fill-opacity="0.2" stroke="#141413" stroke-opacity="0.8" stroke-width="2"/>
<text x="210" y="204" font-family="ui-monospace, SFMono-Regular, Menlo, Consolas, monospace" font-size="20" fill="#141413" text-anchor="middle">document A</text>
<rect x="480" y="174" width="220" height="46" rx="8" fill="#141413" fill-opacity="0.2" stroke="#141413" stroke-opacity="0.8" stroke-width="2"/>
<text x="590" y="204" font-family="ui-monospace, SFMono-Regular, Menlo, Consolas, monospace" font-size="20" fill="#141413" text-anchor="middle">document B</text>
<g stroke="rgba(20,20,19,0.2)" stroke-width="2" fill="none">
<path d="M210 224 V244 H130 V266"/><path d="M210 224 V244 H190 V266"/><path d="M210 224 V244 H250 V266"/>
<path d="M590 224 V244 H510 V266"/><path d="M590 224 V244 H570 V266"/><path d="M590 224 V244 H630 V266"/>
</g>
<g fill="#FFFFFF" stroke="rgba(20,20,19,0.24)" stroke-width="2">
<rect x="102" y="268" width="56" height="44" rx="6"/><rect x="162" y="268" width="56" height="44" rx="6"/><rect x="222" y="268" width="56" height="44" rx="6"/>
<rect x="482" y="268" width="56" height="44" rx="6"/><rect x="542" y="268" width="56" height="44" rx="6"/><rect x="602" y="268" width="56" height="44" rx="6"/>
</g>
<text x="60" y="366" font-family="ui-monospace, SFMono-Regular, Menlo, Consolas, monospace" font-size="21" fill="#5E5D59">overlap is found, not declared</text>
<text x="52" y="418" font-family="ui-monospace, SFMono-Regular, Menlo, Consolas, monospace" font-size="25" font-weight="600" letter-spacing="2" fill="#141413" fill-opacity="0.9">sglang</text>
</svg>
